<svg width="21" height="23" viewBox="0 0 21 23" fill="none" xmlns="http://www.w3.org/2000/svg">
<path d="M7.1829 8.65863C7.41247 8.65863 7.59858 8.84681 7.59858 9.07895V17.8384C7.59858 18.0706 7.41247 18.2588 7.1829 18.2588H6.05226C5.82268 18.2588 5.63658 18.0706 5.63658 17.8384V9.07895C5.63658 8.84681 5.82268 8.65863 6.05226 8.65863H7.1829Z" fill="#FF0000"/>
<path d="M11.057 8.65863C11.2866 8.65863 11.4727 8.84681 11.4727 9.07895V17.8384C11.4727 18.0706 11.2866 18.2588 11.057 18.2588H9.92637C9.69679 18.2588 9.51069 18.0706 9.51069 17.8384V9.07895C9.51069 8.84681 9.69679 8.65863 9.92637 8.65863H11.057Z" fill="#FF0000"/>
<path d="M14.7648 8.65863C14.9944 8.65863 15.1805 8.84681 15.1805 9.07895V17.8384C15.1805 18.0706 14.9944 18.2588 14.7648 18.2588H13.6342C13.4046 18.2588 13.2185 18.0706 13.2185 17.8384V9.07895C13.2185 8.84681 13.4046 8.65863 13.6342 8.65863H14.7648Z" fill="#FF0000"/>
<path fill-rule="evenodd" clip-rule="evenodd" d="M12.8029 0C12.8701 1.17398e-08 12.9336 0.0161704 12.9898 0.0448398C13.4438 0.121518 14.0067 0.308491 14.3993 0.695008C14.5217 0.791951 14.6231 0.919848 14.6906 1.07366L15.9229 3.88377H20.5843C20.8139 3.88377 21 4.07196 21 4.30409V5.44737C21 5.67951 20.8139 5.86769 20.5843 5.86769H19.0048V20.3268C19.0048 21.8031 17.8211 23 16.361 23H4.62233C3.16225 23 1.97862 21.8031 1.97862 20.3268V5.86769H0.415677C0.186105 5.86769 5.35642e-09 5.67951 0 5.44737V4.30409C5.35641e-09 4.07196 0.186105 3.88377 0.415677 3.88377H5.00228L6.23459 1.07368C6.30203 0.919871 6.40343 0.791983 6.5259 0.695041C6.95185 0.275618 7.57842 0.0911534 8.04872 0.0276164C8.09482 0.00979082 8.14485 0 8.19715 0H12.8029ZM3.82423 18.59C3.82423 20.0664 5.00786 21.2633 6.46793 21.2633H14.5154C15.9755 21.2633 17.1591 20.0664 17.1591 18.59V5.86769H3.82423V18.59ZM7.14849 3.88377H13.7767L12.9341 1.96249C12.8929 1.97637 12.8487 1.98392 12.8029 1.98392H8.19715C8.127 1.98392 8.06092 1.96632 8.00295 1.93529L7.14849 3.88377Z" fill="#FF0000"/>
</svg>
