<?xml version="1.0" encoding="utf-8"?>
<!-- Generator: Adobe Illustrator 26.0.1, SVG Export Plug-In . SVG Version: 6.00 Build 0)  -->
<svg version="1.1" id="Layer_1" xmlns="http://www.w3.org/2000/svg" xmlns:xlink="http://www.w3.org/1999/xlink" x="0px" y="0px"
	 viewBox="0 0 17 13" style="enable-background:new 0 0 17 13;" xml:space="preserve">
<style type="text/css">
	.st0{fill:#000712;}
	.st1{fill:none;stroke:#000712;}
</style>
<path class="st0" d="M8.5,1.9C3.8,1.9,0,3.9,0,6.4s3.8,4.5,8.5,4.5s8.5-2,8.5-4.5S13.2,1.9,8.5,1.9z M8.5,8.9C7.1,8.9,6,7.8,6,6.4
	C6,5,7.1,3.9,8.5,3.9S11,5,11,6.4C11,7.8,9.9,8.9,8.5,8.9z"/>
<path class="st0" d="M11,8.4L6,3.9l1-0.5h2.5L12,4.9l-0.5,2.5L11,8.4z"/>
<path class="st1" d="M2,0.4C7.1,4.9,9.9,7.5,15,12"/>
</svg>
